<?xml version="1.0" standalone="no"?>
<!DOCTYPE svg PUBLIC "-//W3C//DTD SVG 20010904//EN"
 "http://www.w3.org/TR/2001/REC-SVG-20010904/DTD/svg10.dtd">
<svg version="1.0" xmlns="http://www.w3.org/2000/svg"
 width="100.000000pt" height="103.000000pt" viewBox="0 0 100.000000 103.000000"
 preserveAspectRatio="xMidYMid meet">
<metadata>
Created by potrace 1.13, written by Peter Selinger 2001-2015
</metadata>
<g transform="translate(0.000000,103.000000) scale(0.100000,-0.100000)"
fill="#000000" stroke="none">
<path d="M486 959 c-5 -17 -22 -199 -19 -199 2 0 172 81 182 87 7 5 -49 72
-77 92 -39 27 -81 37 -86 20z"/>
<path d="M348 889 c-52 -12 -146 -61 -188 -98 l-35 -31 60 -55 c57 -52 61 -53
75 -35 31 39 94 46 132 13 15 -13 17 -8 24 64 12 135 12 148 -11 150 -11 1
-37 -3 -57 -8z"/>
<path d="M625 775 l-160 -64 -7 -38 c-4 -21 -7 -57 -7 -80 l-1 -43 40 0 c49 0
101 -20 143 -56 l32 -27 6 29 c4 16 7 48 8 72 1 35 4 43 18 40 27 -5 34 -56
19 -138 -7 -41 -11 -91 -9 -110 3 -20 0 -59 -5 -88 -5 -29 -6 -52 -1 -52 5 0
32 9 62 20 64 24 120 79 143 140 22 60 22 178 1 265 -23 91 -75 189 -102 192
-11 1 -92 -27 -180 -62z"/>
<path d="M292 644 c-36 -25 -30 -79 18 -152 30 -47 45 -62 63 -62 23 0 24 3
30 98 6 90 5 98 -14 115 -26 21 -67 22 -97 1z"/>
<path d="M75 625 c-14 -13 -25 -36 -25 -50 0 -27 42 -96 78 -129 21 -18 22
-18 69 9 26 15 49 29 51 30 2 2 -4 28 -13 59 -13 45 -24 61 -53 81 -46 32 -76
32 -107 0z"/>
<path d="M455 488 c-2 -7 -7 -31 -12 -53 -8 -39 -10 -40 -56 -45 -43 -5 -50
-3 -78 26 l-30 31 -67 -43 c-36 -24 -74 -46 -84 -50 -24 -7 -23 -18 8 -84 37
-81 69 -117 127 -147 99 -50 196 -65 265 -39 75 27 132 119 132 213 l0 34 -37
-30 c-86 -69 -304 -67 -363 4 -10 11 -10 19 -2 27 8 8 25 5 64 -12 102 -44
267 -11 307 62 15 26 14 29 -14 58 -17 18 -42 38 -57 46 -33 17 -97 18 -103 2z"/>
</g>
</svg>
