<?xml version="1.0" encoding="UTF-8" standalone="no"?>
<svg
   xmlns:dc="http://purl.org/dc/elements/1.1/"
   xmlns:cc="http://creativecommons.org/ns#"
   xmlns:rdf="http://www.w3.org/1999/02/22-rdf-syntax-ns#"
   xmlns:svg="http://www.w3.org/2000/svg"
   xmlns="http://www.w3.org/2000/svg"
   version="1.1"
   id="svg2"
   viewBox="0 0 124.39459 108.14384"
   height="30.520594mm"
   width="35.106918mm">
  <defs
     id="defs4" />
  <metadata
     id="metadata7">
    <rdf:RDF>
      <cc:Work
         rdf:about="">
        <dc:format>image/svg+xml</dc:format>
        <dc:type
           rdf:resource="http://purl.org/dc/dcmitype/StillImage" />
        <dc:title></dc:title>
      </cc:Work>
    </rdf:RDF>
  </metadata>
  <g
     transform="translate(-1.4496493,-0.3424249)"
     id="layer1">
    <path
       id="path4175"
       d="M 44.59302,106.7958 C 33.21906,104.53256 22.3202,98.47375 14.77779,90.22114 7.1314902,81.85487 5.7656002,79.25395 2.9945102,67.78348 1.1203802,60.02584 1.0234502,57.61924 2.3148202,50.90848 5.3836802,34.9607 13.81468,22.56159 27.98573,13.15539 34.73873,8.6729999 44.72901,4.2680799 50.79796,3.0970199 c 15.42846,-2.97707004 22.14847,-3.39556004 31.3422,-1.95183 23.39646,3.67403 37.2914,15.5662001 42.20197,36.1191201 2.20521,9.22977 2.12946,10.8671 -1.21327,26.22734 -1.28448,5.90235 -10.13524,19.77467 -16.56916,25.96985 -8.30298,7.99486 -21.91098,14.84488 -34.42988,17.33134 -11.36424,2.25714 -16.20578,2.25765 -27.5368,0.003 z m 32.88222,-2.60486 c 21.63454,-6.42259 36.9686,-20.65288 43.69731,-40.55192 2.21192,-6.54137 2.62212,-10.05682 2.17997,-18.68254 -0.92397,-18.02532 -8.2397,-29.16377 -24.4018,-37.1525901 -9.12384,-4.50985 -10.20737,-4.74209 -24.07262,-5.15964 -12.00004,-0.36137 -16.29067,0.0409 -24.73268,2.31879 C 31.65038,9.9535399 15.74251,22.28554 8.2638802,37.4302 c -3.69417,7.48089 -3.99926,9.05429 -3.99926,20.625 0,11.27517 0.35157,13.21295 3.51992,19.40128 6.2799798,12.26587 15.9055098,20.50559 30.1340898,25.79563 9.60701,3.57179 29.1269,4.03507 39.55661,0.93883 z M 48.54259,90.40653 c -1.98342,-5.10223 -0.62962,-17.13699 2.53018,-22.49247 1.46764,-2.48746 2.36791,-4.82319 2.0006,-5.1905 -1.05765,-1.05764 4.18154,-4.24788 5.56844,-3.39073 0.6863,0.42416 1.24781,1.8298 1.24781,3.12365 0,1.29385 0.5625,2.7001 1.25,3.125 0.6875,0.4249 1.25,-0.21691 1.25,-1.42623 0,-3.08322 2.15065,-0.59114 2.84893,3.30123 0.53877,3.00321 0.56725,2.98815 0.73084,-0.38627 0.0965,-1.98972 0.7119,-3.1765 1.42023,-2.73873 0.6875,0.4249 1.25,-0.38565 1.25,-1.80123 0,-3.58104 2.0653,-3.22592 3.00462,0.51663 0.4266,1.69972 1.81916,4.09035 3.09456,5.3125 1.2754,1.22216 3.07976,4.4721 4.00969,7.2221 1.32778,3.92656 1.7817,4.41836 2.11435,2.2908 0.23297,-1.49006 -1.0157,-5.54949 -2.77482,-9.02095 -1.75912,-3.47146 -3.17817,-7.03356 -3.15345,-7.91579 0.072,-2.56941 6.16488,5.32708 9.37172,12.14594 1.61662,3.4375 2.97172,5.23243 3.01132,3.98873 0.0396,-1.2437 0.63451,-1.91363 1.32201,-1.48873 1.73132,1.07002 1.56464,-0.1407 -0.59408,-4.3152 -1.64479,-3.18068 -1.6326,-3.64721 0.1128,-4.31698 1.07629,-0.41301 2.60925,-0.34305 3.40658,0.15547 3.09701,1.93637 4.59361,1.47269 3.26421,-1.01132 -0.70261,-1.31283 -1.82018,-2.38697 -2.48349,-2.38697 -2.59642,0 -1.03631,-2.50478 1.60648,-2.57923 l 2.8125,-0.0792 -2.8125,-1.13049 c -3.01005,-1.20989 -3.83568,-3.68615 -1.25,-3.74906 0.85937,-0.0209 0.4375,-0.69483 -0.9375,-1.4976 -2.41979,-1.41278 -2.39974,-1.48777 0.625,-2.33739 2.68368,-0.75383 2.46302,-0.89539 -1.5625,-1.00239 -4.82673,-0.12831 -6.37913,-1.99922 -2.5,-3.01295 1.95587,-0.51112 1.96479,-0.587 0.0842,-0.71665 -1.1568,-0.0797 -2.46033,-1.27 -2.89674,-2.645 -0.43641,-1.375 -1.30442,-2.5 -1.92892,-2.5 -0.6245,0 -2.97722,-2.05315 -5.22827,-4.56256 -6.4135,-7.14961 -8.79863,-9.18744 -10.75321,-9.18744 -0.9977,0 -2.4938,-0.92969 -3.32467,-2.06597 -1.66083,-2.27133 -4.38993,-1.32966 -4.38993,1.51474 0,2.66648 -1.4785,2.22086 -6.29722,-1.89797 -5.28828,-4.52019 -8.1492,-5.04978 -3.37751,-0.62521 1.8836,1.74657 3.42473,3.8025 3.42473,4.56873 0,0.80651 -0.92113,0.56589 -2.1875,-0.57143 C 48.8762,27.31604 35.03782,21.85476 37.18006,23.997 c 2.51936,2.51936 1.61112,3.32694 -2.91548,2.59238 -5.36586,-0.87076 -5.60264,0.1681 -0.625,2.74214 4.65403,2.40669 5.07768,4.8179 0.54362,3.09406 -1.7635,-0.67048 -4.15413,-1.16833 -5.3125,-1.10633 -1.15836,0.062 -0.278,0.64059 1.95638,1.28575 2.23437,0.64515 4.0625,1.75732 4.0625,2.4715 0,0.72964 -1.0952,0.95089 -2.5,0.50502 -3.2936,-1.04535 -7.52428,0.35542 -6.80005,2.25149 0.38306,1.00286 3.04938,1.35842 8.06122,1.07498 4.82581,-0.27292 7.48883,0.0605 7.48883,0.9375 0,0.74857 -1.93555,1.36103 -4.30123,1.36103 -6.02479,0 -7.04535,2.46862 -1.08504,2.6246 2.6187,0.0685 6.16752,0.52488 7.88627,1.0141 l 3.125,0.88951 -2.91956,1.58717 c -1.60576,0.87294 -2.60372,1.903 -2.21771,2.28902 0.38602,0.38602 1.57279,-0.021 2.63727,-0.9044 2.95505,-2.45247 3.84419,-0.37185 1.13817,2.66334 l -2.38817,2.67867 3.90402,-1.99615 c 4.55934,-2.33123 6.90215,-1.15802 2.69768,1.35091 -2.68549,1.60252 -2.57849,1.66553 1.8358,1.08106 2.57812,-0.34136 4.6875,-0.21868 4.6875,0.27262 0,2.26669 -4.145,6.44955 -6.39117,6.44955 -3.98998,0 -7.74829,9.97759 -7.87725,20.91261 C 41.75036,92.36201 41.5629,92.44741 31.66003,86.77089 16.2594,77.94296 8.5932702,59.98307 13.01133,43.08152 18.81622,20.87458 41.15053,6.3076499 69.51555,6.2282199 107.25578,6.1225399 126.1953,32.85019 110.6577,64.28841 c -5.46156,11.0507 -13.57344,18.87412 -25.5924,24.6823 -7.41486,3.58324 -9.73251,4.06467 -21.71686,4.51112 l -13.41615,0.49979 -1.38974,-3.57505 z m 8.84703,-64.75128 c 0,-0.30317 -0.5625,-0.89887 -1.25,-1.32377 -0.6875,-0.4249 -1.25,-0.17685 -1.25,0.55123 0,0.72807 0.5625,1.32377 1.25,1.32377 0.6875,0 1.25,-0.24805 1.25,-0.55123 z"
       style="fill:#000000" />
  </g>
</svg>
