<?xml version="1.0" standalone="no"?>
<!DOCTYPE svg PUBLIC "-//W3C//DTD SVG 20010904//EN"
 "http://www.w3.org/TR/2001/REC-SVG-20010904/DTD/svg10.dtd">
<svg version="1.0" xmlns="http://www.w3.org/2000/svg"
 width="100.000000pt" height="102.000000pt" viewBox="0 0 100.000000 102.000000"
 preserveAspectRatio="xMidYMid meet">
<metadata>
Created by potrace 1.13, written by Peter Selinger 2001-2015
</metadata>
<g transform="translate(0.000000,102.000000) scale(0.100000,-0.100000)"
fill="#000000" stroke="none">
<path d="M518 1010 c-16 -4 -45 -22 -67 -39 -37 -30 -39 -30 -55 -12 -32 36
-116 12 -144 -41 -50 -95 -36 -149 65 -245 42 -40 83 -73 91 -73 8 0 -18 34
-57 76 -48 51 -72 86 -77 109 -14 75 33 129 110 127 30 -2 56 5 78 18 32 20
90 26 123 14 19 -8 45 -55 45 -84 0 -34 -28 -79 -95 -150 -58 -61 -91 -108
-83 -115 6 -5 170 181 194 220 35 58 33 125 -3 164 -31 33 -80 45 -125 31z"/>
<path d="M730 810 c-43 -15 -66 -31 -105 -76 -27 -32 -69 -78 -92 -103 -23
-25 -39 -48 -37 -50 8 -8 68 41 116 94 84 94 195 122 265 69 39 -29 44 -71 16
-128 -16 -34 -16 -37 3 -57 14 -15 19 -35 18 -70 0 -43 -5 -54 -39 -89 -20
-21 -49 -41 -63 -45 -37 -9 -115 33 -201 110 -65 57 -114 86 -125 74 -8 -9
185 -175 243 -210 80 -48 127 -51 183 -13 78 55 101 145 57 224 l-22 39 22 45
c11 25 21 58 21 73 0 69 -80 133 -165 132 -22 0 -65 -8 -95 -19z"/>
<path d="M99 696 c-61 -30 -86 -121 -51 -181 12 -19 17 -35 13 -35 -18 0 -51
-72 -51 -109 0 -107 135 -141 234 -59 35 29 129 148 156 197 11 22 11 23 -8
10 -10 -8 -42 -43 -69 -79 -87 -113 -170 -151 -236 -107 -34 22 -36 70 -6 122
18 31 20 39 9 65 -23 55 8 121 65 140 46 15 107 -6 162 -56 37 -33 70 -50 79
-41 7 7 -109 92 -159 116 -54 26 -107 33 -138 17z"/>
<path d="M397 448 c-62 -77 -149 -222 -161 -271 -11 -45 4 -95 39 -133 26 -27
40 -34 71 -34 22 0 54 9 72 20 41 25 50 25 79 -2 31 -29 101 -30 140 -2 15 11
38 40 51 65 41 77 19 172 -61 264 -35 40 -157 142 -157 130 0 -13 31 -65 39
-65 17 0 104 -96 122 -135 24 -51 24 -123 2 -155 -37 -54 -61 -60 -136 -34
-42 14 -48 14 -69 0 -60 -42 -148 5 -148 79 0 43 23 90 84 172 45 59 82 131
73 140 -3 2 -20 -15 -40 -39z"/>
</g>
</svg>
