<?xml version="1.0" encoding="UTF-8" standalone="no"?>
<svg
   xmlns:dc="http://purl.org/dc/elements/1.1/"
   xmlns:cc="http://creativecommons.org/ns#"
   xmlns:rdf="http://www.w3.org/1999/02/22-rdf-syntax-ns#"
   xmlns:svg="http://www.w3.org/2000/svg"
   xmlns="http://www.w3.org/2000/svg"
   xmlns:sodipodi="http://sodipodi.sourceforge.net/DTD/sodipodi-0.dtd"
   xmlns:inkscape="http://www.inkscape.org/namespaces/inkscape"
   version="1.1"
   id="svg2"
   viewBox="0 0 124.22778 125.16024"
   height="35.323002mm"
   width="35.059841mm"
   inkscape:version="0.91 r13725"
   sodipodi:docname="partylogo-m.svg">
  <sodipodi:namedview
     pagecolor="#ffffff"
     bordercolor="#666666"
     borderopacity="1"
     objecttolerance="10"
     gridtolerance="10"
     guidetolerance="10"
     inkscape:pageopacity="0"
     inkscape:pageshadow="2"
     inkscape:window-width="730"
     inkscape:window-height="480"
     id="namedview7"
     showgrid="false"
     fit-margin-top="0"
     fit-margin-left="0"
     fit-margin-right="0"
     fit-margin-bottom="0"
     inkscape:zoom="0.22425739"
     inkscape:cx="371.53428"
     inkscape:cy="-399.91113"
     inkscape:window-x="0"
     inkscape:window-y="0"
     inkscape:window-maximized="0"
     inkscape:current-layer="svg2" />
  <defs
     id="defs4" />
  <metadata
     id="metadata7">
    <rdf:RDF>
      <cc:Work
         rdf:about="">
        <dc:format>image/svg+xml</dc:format>
        <dc:type
           rdf:resource="http://purl.org/dc/dcmitype/StillImage" />
        <dc:title></dc:title>
      </cc:Work>
    </rdf:RDF>
  </metadata>
  <g
     id="layer1"
     transform="translate(-0.51296806,-1.1097273)">
    <path
       id="path4162"
       d="m 50.693112,124.72156 c -12.50703,-2.27204 -22.16102,-7.41605 -31.76147,-16.9237 C 8.6871618,97.652407 3.4125318,87.329277 1.2807118,73.252767 -5.1017582,31.108877 29.191422,-3.8958725 71.379452,1.6995275 c 27.41803,3.63645 48.084338,23.8322195 52.516478,51.3207695 5.50601,34.14868 -16.45291,65.782993 -49.789948,71.728073 -11.40359,2.03364 -12.07484,2.03286 -23.41287,-0.0268 z M 34.816952,89.604487 c 3.29612,-3.74561 3.57348,-7.9592 0.86828,-13.19049 -1.85805,-3.59307 -1.74152,-4.28285 2.62915,-15.56292 2.51535,-6.49177 5.2845,-11.80322 6.15365,-11.80322 0.86915,0 3.56934,5.19522 6.00043,11.54493 4.05428,10.58929 4.27493,11.82578 2.66558,14.93792 -2.61748,5.06165 -2.15631,10.41071 1.23774,14.35654 4.26464,4.95793 12.2507,4.95793 16.51534,0 3.41234,-3.96709 3.73935,-7.46382 1.26245,-13.49924 -1.6073,-3.91648 -1.45208,-4.92371 2.19071,-14.21515 4.31046,-10.99443 5.43829,-13.125 6.94778,-13.125 0.55608,0 3.07945,5.40385 5.60747,12.00857 4.29141,11.21171 4.46826,12.20415 2.66517,14.95602 -3.87455,5.91329 -1.95544,12.9159 4.44704,16.22675 4.8665,2.51656 10.287318,1.38874 13.606478,-2.83089 4.78577,-6.08412 1.94444,-15.36734 -5.45049,-17.80788 -3.937728,-1.29957 -4.611158,-2.34396 -8.922238,-13.83712 -4.60745,-12.28327 -4.63792,-12.48436 -2.5563,-16.87104 5.66219,-11.9322 -8.06207,-21.82041 -17.74324,-12.78386 -3.14358,2.93427 -3.62497,7.89012 -1.37169,14.12144 1.27037,3.51316 0.93299,5.29802 -2.85218,15.08875 -2.57182,6.6523 -4.99574,11.10426 -6.04584,11.10426 -1.04928,0 -3.48813,-4.47125 -6.07596,-11.13931 -3.79981,-9.79095 -4.15023,-11.61737 -2.89497,-15.08875 2.08096,-5.75477 1.75774,-9.89078 -1.05209,-13.4629 -4.89406,-6.22178 -14.5798,-5.32793 -18.20372,1.67995 -2.30998,4.46701 -2.28229,6.32348 0.17106,11.46821 1.91423,4.01418 1.83944,4.55445 -2.03903,14.72991 -4.23049,11.09899 -6.69082,14.93789 -9.57363,14.93789 -3.32931,0 -7.87445,5.93943 -7.87445,10.29005 0,10.92341 12.55204,15.87511 19.6875,7.76658 z"
       style="fill:#000000"
       inkscape:connector-curvature="0" />
  </g>
</svg>
