<?xml version="1.0" encoding="UTF-8" standalone="no"?>
<!-- Created with Inkscape (http://www.inkscape.org/) -->

<svg
   xmlns:dc="http://purl.org/dc/elements/1.1/"
   xmlns:cc="http://creativecommons.org/ns#"
   xmlns:rdf="http://www.w3.org/1999/02/22-rdf-syntax-ns#"
   xmlns:svg="http://www.w3.org/2000/svg"
   xmlns="http://www.w3.org/2000/svg"
   xmlns:sodipodi="http://sodipodi.sourceforge.net/DTD/sodipodi-0.dtd"
   xmlns:inkscape="http://www.inkscape.org/namespaces/inkscape"
   width="34.441578mm"
   height="34.202118mm"
   viewBox="0 0 122.03709 121.18861"
   id="svg2"
   version="1.1"
   inkscape:version="0.91 r13725"
   sodipodi:docname="partylogo-kd.svg">
  <defs
     id="defs4" />
  <sodipodi:namedview
     id="base"
     pagecolor="#ffffff"
     bordercolor="#666666"
     borderopacity="1.0"
     inkscape:pageopacity="0.0"
     inkscape:pageshadow="2"
     inkscape:zoom="0.98994949"
     inkscape:cx="20.65686"
     inkscape:cy="-170.39215"
     inkscape:document-units="px"
     inkscape:current-layer="layer1"
     showgrid="false"
     inkscape:window-width="1920"
     inkscape:window-height="1001"
     inkscape:window-x="-9"
     inkscape:window-y="-9"
     inkscape:window-maximized="1"
     fit-margin-top="0"
     fit-margin-left="0"
     fit-margin-right="0"
     fit-margin-bottom="0" />
  <metadata
     id="metadata7">
    <rdf:RDF>
      <cc:Work
         rdf:about="">
        <dc:format>image/svg+xml</dc:format>
        <dc:type
           rdf:resource="http://purl.org/dc/dcmitype/StillImage" />
        <dc:title></dc:title>
      </cc:Work>
    </rdf:RDF>
  </metadata>
  <g
     inkscape:label="Layer 1"
     inkscape:groupmode="layer"
     id="layer1"
     transform="translate(-1.3177445,-1.2689316)">
    <path
       style="fill:#000000"
       d="m 52.23776,121.53286 c -1.03125,-0.73705 -4.19113,-1.9441 -7.02195,-2.68233 l -5.14695,-1.34224 1.64524,-8.63454 c 3.74764,-19.668379 14.090563,-42.384139 24.898663,-54.683979 2.75,-3.12956 4.0011,-5.13153 2.78021,-4.44883 -3.57879,2.00123 -12.69623,14.98456 -18.222293,25.94874 -2.81559,5.58637 -6.93226,16.90703 -9.14816,25.157029 -2.2159,8.25 -4.17357,15.20897 -4.35037,15.46437 -0.1768,0.2554 -2.9433,-1.15085 -6.14777,-3.125 -3.20447,-1.97415 -6.93928,-4.23024 -8.29959,-5.01353 -4.01175,-2.31003 -12.29316,-10.789999 -14.3300101,-14.673569 -2.66812,-5.08718 -4.91517,-13.55025 -6.67823,-25.15227 -1.31849999,-8.67657 -1.24003999,-11.06348 0.59287,-18.03575 3.20364,-12.18642 7.1655,-18.85515 16.2510301,-27.35422 7.54399,-7.05703 9.48971,-8.31239 12.22559,-7.8878 0.50781,0.0788 5.65465,-2.10458 11.43742,-4.85197 5.78278,-2.7473903 11.442113,-4.9952603 12.576303,-4.9952603 1.13418,0 3.86197,-0.930716 6.06174,-2.068266 4.94361,-2.55643996 12.49663,-2.50773996 18.70024,0.12058 6.68752,2.833326 28.396497,23.2766063 32.281757,30.3996263 1.77691,3.25768 5.07721,9.29197 7.334,13.40952 3.63377,6.62986 4.03083,8.28526 3.47023,14.46771 -0.7474,8.2424 -4.81083,18.80807 -12.2005,31.72355 -7.77266,13.584859 -11.418847,17.447729 -21.963027,23.268249 -8.97712,4.95548 -10.05097,5.23513 -22.15295,5.7691 -7.95454,0.35098 -13.420813,0.0592 -14.593493,-0.77892 z m 24.142343,-12.09171 c -0.70159,-1.82832 -0.4559,-1.81872 2.46696,0.0964 3.46442,2.26997 9.19244,2.1743 8.74883,-0.14613 -0.14677,-0.76776 2.21047,-2.01972 5.23831,-2.78214 7.15256,-1.80104 8.098217,-3.55018 2.48834,-4.6026 -3.09593,-0.5808 -4.28009,-1.37453 -3.82397,-2.563159 0.50086,-1.30521 -0.76643,-1.74484 -5.23754,-1.81692 -3.24405,-0.0523 -7.86702,-0.88436 -10.27327,-1.84901 -4.21107,-1.68818 -4.05144,-1.7252 4.26024,-0.9881 7.73685,0.68612 8.55172,0.54815 7.83247,-1.32621 -0.49611,-1.29284 -0.21351,-2.01625 0.73975,-1.8937 4.47419,0.57522 7.39326,-0.2067 6.77607,-1.81507 -0.37804,-0.98515 0.62413,-2.40387 2.35086,-3.32798 2.320297,-1.24179 2.691907,-1.99384 1.62215,-3.28282 -0.76321,-0.91961 -2.44378,-1.67202 -3.7346,-1.67202 -1.29081,0 -2.34694,-0.63656 -2.34694,-1.41459 0,-0.93281 -1.80931,-1.19329 -5.3125,-0.76481 -2.92188,0.35738 -4.60938,0.38457 -3.75,0.0604 0.85937,-0.32415 1.5625,-1.08192 1.5625,-1.68394 0,-1.74208 -9.46654,2.84297 -13.65855,6.61541 -2.10089,1.89062 -4.10593,3.4375 -4.45563,3.4375 -1.91848,0 -0.0568,-3.75952 4.12948,-8.33927 4.02482,-4.40309 4.76891,-6.08529 4.78851,-10.8256 0.0224,-5.42041 -0.0801,-5.57317 -2.9952,-4.46484 -1.66012,0.63118 -3.6268,0.77158 -4.37039,0.31202 -0.7436,-0.45957 -2.66235,0.80203 -4.2639,2.80355 -1.92015,2.3997 -2.9576,3.00054 -3.04606,1.76414 -0.0738,-1.03125 -0.58495,0.0358 -1.13592,2.37124 -0.55096,2.33544 -0.48327,7.90738 0.15043,12.3821 1.44258,10.18648 0.70934,12.74083 -3.6645,12.7658 -1.8443,0.0105 -4.132253,0.51248 -5.084343,1.11545 -1.0748,0.68069 0.34689,0.86647 3.750003,0.49004 5.28159,-0.58421 5.7367,-0.35185 12.50511,6.384549 7.30524,7.27068 9.06165,8.39581 7.7433,4.96026 z M 36.52033,90.534211 c -3.24352,-9.08874 -2.0125,-13.42141 5.05425,-17.78891 4.1103,-2.5403 12.000353,-11.70979 8.09651,-9.40943 -1.02146,0.60191 -0.78434,-0.10231 0.54494,-1.61839 1.32564,-1.51193 2.56043,-5.17071 2.82766,-8.37862 l 0.47439,-5.69465 -2.92744,1.91813 c -1.61009,1.05498 -3.28336,1.56223 -3.71836,1.12722 -0.43501,-0.435 -1.47204,0.70399 -2.30453,2.53109 -1.06918,2.34661 -1.79986,2.85882 -2.48856,1.74449 -1.29448,-2.09452 -4.97454,6.60973 -5.80182,13.72277 -0.34167,2.93766 -1.14455,5.66464 -1.78418,6.05995 -1.32232,0.81724 -6.00543,-3.01447 -6.00543,-4.91362 0,-0.6875 1.06934,-0.28226 2.37631,0.90053 2.28958,2.07204 2.406,1.9748 3.18981,-2.66457 0.98775,-5.84645 -0.0258,-12.2795 -2.48876,-15.79583 -1.00505,-1.43491 -1.82736,-4.76696 -1.82736,-7.40456 0,-3.30112 -0.44884,-4.51824 -1.44025,-3.90552 -1.03727,0.64107 -1.24543,-0.56243 -0.74395,-4.30123 0.38297,-2.85524 0.30861,-5.19135 -0.16524,-5.19135 -1.46868,0 -5.15056,7.11572 -5.15056,9.95414 0,1.48137 -0.5625,2.34576 -1.25,1.92086 -1.71944,-1.06268 -1.47485,2.81246 0.53257,8.4375 0.99803,2.7966 1.17407,4.6875 0.4364,4.6875 -0.68004,0 -0.84105,0.98437 -0.35779,2.1875 2.44235,6.08048 2.43206,5.99799 0.56036,4.49157 -2.54553,-2.04876 -11.88404,-2.602 -11.48404,-0.68035 0.17722,0.85137 -1.0403301,1.50128 -2.8125001,1.50128 -3.98131,0 -3.97256,1.65186 0.0254,4.79664 2.09094,1.64474 2.6163901,2.67104 1.5625,3.05184 -0.94817,0.3426 -0.24287,1.20603 1.7506801,2.1432 2.00118,0.94075 3.07426,2.25824 2.67877,3.28889 -0.73806,1.92333 0.40348,2.15085 11.37183,2.26651 l 7.38916,0.0779 1.43402,6.29464 c 1.32435,5.81326 2.72439,9.33036 3.71412,9.33036 0.22217,0 -0.34884,-2.10938 -1.2689,-4.6875 z m 43.810333,-34.00043 c 1.0489,-2.02835 1.92421,-5.26273 1.94511,-7.1875 0.0351,-3.23292 0.1429,-3.30908 1.4146,-0.99957 2.54802,4.62742 8.83502,10.43616 10.57341,9.76908 1.90408,-0.73067 2.39089,-4.14408 0.59101,-4.14408 -0.62314,0 -0.84342,-1.10729 -0.48951,-2.46065 0.42964,-1.64292 -0.61582,-3.71995 -3.14587,-6.25 -4.212,-4.21201 -5.5289,-4.56353 -7.96603,-2.1264 -0.91462,0.91462 -2.29949,1.45076 -3.07749,1.19143 -2.3127,-0.7709 -6.68813,5.92221 -6.68813,10.23086 0,6.79577 3.78543,7.88933 6.8429,1.97683 z m -7.58937,-13.05576 c 3.63332,-1.5181 4.28555,-2.49268 5.04139,-7.53302 0.71252,-4.75141 0.37999,-6.57921 -1.85478,-10.19514 -3.47331,-5.61993 -8.28479,-8.9335 -10.1963,-7.02199 -1.61201,1.61201 1.71992,11.57773 4.69694,14.04843 2.90731,2.41285 2.14756,3.05413 -3.94898,3.33318 -3.15745,0.14453 -6.52853,0.91653 -7.49131,1.71556 -1.83466,1.52264 -2.34019,5.1403 -0.91716,6.56334 1.45201,1.452 10.33566,0.90073 14.6702,-0.91036 z m 11.99647,-4.50631 c 0,-2.94691 -3.17344,-4.07587 -5.06167,-1.8007 -1.15926,1.39683 -1.15926,2.20457 0,3.6014 1.88823,2.27517 5.06167,1.14621 5.06167,-1.8007 z m 14.375,1.35845 c 9.650387,-3.39353 8.421847,-7.53933 -2.24957,-7.59138 -3.86771,-0.0189 -10.87543,3.1551 -10.87543,4.92574 0,1.67118 3.70349,5.07199 5.40179,4.96031 0.81026,-0.0533 4.28571,-1.08589 7.72321,-2.29467 z m -9.76442,-9.94055 c 3.21937,-4.77722 3.67752,-15.1679 0.66879,-15.1679 -0.9223,0 -1.33325,0.55606 -0.91322,1.23568 0.42003,0.67963 0.01,0.94641 -0.91152,0.59284 -1.95844,-0.75152 -7.20463,9.16729 -7.20463,13.62159 0,6.05936 4.18213,5.9182 8.36058,-0.28221 z"
       id="path4149"
       inkscape:connector-curvature="0" />
  </g>
</svg>
