<?xml version="1.0" standalone="no"?>
<!DOCTYPE svg PUBLIC "-//W3C//DTD SVG 20010904//EN"
 "http://www.w3.org/TR/2001/REC-SVG-20010904/DTD/svg10.dtd">
<svg version="1.0" xmlns="http://www.w3.org/2000/svg"
 width="100.000000pt" height="59.000000pt" viewBox="0 0 100.000000 59.000000"
 preserveAspectRatio="xMidYMid meet">
<metadata>
Created by potrace 1.13, written by Peter Selinger 2001-2015
</metadata>
<g transform="translate(0.000000,59.000000) scale(0.100000,-0.100000)"
fill="#000000" stroke="none">
<path d="M471 540 c-12 -27 -26 -50 -31 -50 -6 0 -27 10 -48 23 -81 51 -92 42
-37 -34 38 -51 125 -129 145 -129 20 0 100 71 146 131 58 75 46 85 -38 32 -21
-13 -42 -23 -48 -23 -5 0 -19 23 -31 50 -12 28 -25 50 -29 50 -4 0 -17 -22
-29 -50z"/>
<path d="M214 525 c-7 -19 -14 -39 -14 -44 0 -18 -30 -20 -72 -5 -61 21 -75
13 -49 -32 12 -19 21 -39 21 -45 0 -5 -21 -19 -47 -32 -27 -12 -47 -27 -46
-32 1 -6 26 -15 55 -21 29 -6 66 -14 81 -18 28 -7 29 -6 22 24 -6 26 -3 31 20
40 14 5 41 10 59 10 l32 0 -1 73 c-1 108 -32 150 -61 82z"/>
<path d="M739 538 c-7 -13 -14 -56 -14 -95 l-1 -73 32 0 c18 0 45 -5 59 -10
23 -9 26 -14 20 -40 -7 -30 -6 -31 22 -24 15 4 52 12 81 18 29 6 54 15 55 21
1 5 -19 20 -45 32 -27 13 -48 27 -48 32 0 6 9 26 21 45 26 45 12 53 -49 32
-54 -19 -65 -15 -82 36 -18 49 -34 58 -51 26z"/>
<path d="M314 418 c4 -13 9 -38 13 -55 l6 -33 -62 0 c-33 0 -61 -4 -61 -9 0
-5 15 -19 34 -30 56 -35 61 -46 37 -80 -13 -17 -17 -32 -11 -36 5 -3 48 6 95
21 102 32 192 30 292 -5 75 -27 92 -21 62 20 -24 34 -19 45 37 80 19 11 34 25
34 30 0 5 -27 9 -60 9 -67 0 -71 6 -49 69 6 18 9 35 5 38 -3 4 -36 -23 -73
-59 -92 -88 -105 -94 -146 -69 -18 11 -57 45 -87 75 -58 60 -76 69 -66 34z"/>
<path d="M20 260 c0 -6 3 -10 8 -10 11 0 72 -57 72 -68 0 -6 -20 -22 -45 -36
-52 -31 -56 -43 -17 -51 65 -13 77 -20 78 -45 3 -59 -3 -60 119 10 45 26 104
57 130 69 64 28 52 36 -25 16 -73 -19 -109 -17 -124 8 -8 13 -7 24 6 47 l16
29 -31 10 c-68 21 -187 34 -187 21z"/>
<path d="M895 262 c-2 -2 -18 -6 -37 -8 -18 -3 -47 -10 -65 -15 l-31 -10 16
-29 c13 -23 14 -34 6 -47 -15 -25 -51 -27 -124 -8 -34 9 -64 14 -67 11 -2 -2
37 -25 87 -50 50 -26 108 -57 128 -70 20 -12 45 -25 55 -29 17 -6 19 -3 21 43
1 25 13 32 79 45 38 8 34 20 -18 51 -25 14 -45 30 -45 36 0 11 61 68 72 68 5
0 8 4 8 9 0 9 -77 11 -85 3z"/>
</g>
</svg>
