<?xml version="1.0" standalone="no"?>
<!DOCTYPE svg PUBLIC "-//W3C//DTD SVG 20010904//EN"
 "http://www.w3.org/TR/2001/REC-SVG-20010904/DTD/svg10.dtd">
<svg version="1.0" xmlns="http://www.w3.org/2000/svg"
 width="100.000000pt" height="100.000000pt" viewBox="0 0 100.000000 100.000000"
 preserveAspectRatio="xMidYMid meet">
<metadata>
Created by potrace 1.13, written by Peter Selinger 2001-2015
</metadata>
<g transform="translate(0.000000,100.000000) scale(0.100000,-0.100000)"
fill="#000000" stroke="none">
<path d="M600 985 c-8 -10 -17 -12 -23 -6 -10 10 -67 -92 -67 -121 0 -39 -16
-15 -18 27 -1 43 -7 58 -31 94 -8 12 -12 12 -25 2 -11 -10 -20 -10 -37 0 -19
9 -24 9 -34 -5 -7 -9 -22 -16 -34 -16 -12 0 -29 -7 -37 -15 -11 -11 -20 -12
-34 -5 -22 12 -34 -1 -39 -41 0 -6 -8 -9 -16 -5 -8 3 -18 -1 -22 -8 -5 -8 -19
-16 -33 -18 -19 -2 -25 -9 -25 -28 0 -31 -37 -80 -60 -80 -11 0 -15 -5 -11
-15 3 -8 9 -22 12 -30 4 -10 0 -15 -10 -15 -9 0 -16 -2 -16 -5 0 -11 83 -85
101 -90 11 -4 19 -10 19 -15 0 -6 -11 -5 -26 0 -33 13 -95 13 -114 0 -13 -9
-13 -12 3 -24 18 -14 18 -15 -3 -36 -20 -20 -20 -23 -6 -39 10 -10 12 -21 6
-31 -6 -9 -3 -18 8 -26 15 -11 15 -14 -3 -34 -19 -22 -19 -22 0 -36 10 -8 23
-14 28 -14 5 0 7 -9 4 -20 -3 -13 0 -20 10 -20 10 0 13 -6 8 -17 -12 -33 -10
-38 18 -41 15 -2 27 -9 27 -17 0 -9 6 -12 17 -8 13 5 15 3 9 -13 -12 -32 -12
-38 4 -39 8 0 14 -8 12 -17 -2 -13 8 -10 53 13 30 17 57 35 60 40 4 5 10 9 15
9 5 0 -2 -17 -16 -37 -33 -49 -31 -110 4 -105 17 3 22 -2 22 -18 0 -15 5 -20
18 -18 11 2 26 -3 35 -11 11 -9 17 -10 17 -2 0 18 28 13 43 -9 13 -18 15 -18
37 -3 21 15 24 15 36 -2 11 -14 16 -16 28 -6 8 7 20 11 28 10 7 -1 21 1 30 5
9 4 26 2 38 -4 18 -10 22 -9 27 10 4 14 11 19 23 15 10 -3 20 0 23 9 4 9 14
12 29 9 13 -3 20 -2 16 2 -4 5 -3 14 3 21 7 9 7 19 0 33 -6 11 -11 30 -11 42
0 12 -7 31 -17 41 -9 10 -12 18 -6 18 5 0 18 -10 29 -21 18 -21 72 -49 94 -49
5 0 10 7 10 15 0 8 9 15 20 15 11 0 20 6 20 14 0 8 7 16 15 20 8 3 15 15 15
26 0 14 7 20 21 20 19 0 20 4 15 35 -6 29 -4 35 10 35 10 0 14 5 11 14 -3 8 3
22 14 32 14 13 16 20 8 31 -8 9 -8 17 -1 26 5 6 9 26 8 42 -1 17 3 36 8 44 7
9 5 17 -7 26 -10 7 -15 19 -11 29 7 17 -26 22 -111 18 l-40 -2 52 24 c28 13
56 33 61 43 15 29 3 90 -19 96 -13 3 -17 11 -13 21 4 11 1 16 -11 16 -12 0
-16 7 -13 28 2 22 -1 28 -20 30 -14 2 -27 14 -33 28 -5 14 -13 22 -19 19 -5
-3 -17 3 -27 14 -9 11 -20 18 -24 15 -5 -3 -11 7 -15 21 -7 28 -8 29 -35 14
-15 -7 -24 -7 -34 1 -7 6 -18 9 -23 8 -6 -2 -17 5 -24 15 -13 17 -15 18 -28 2z
m-185 -312 c3 -16 25 -86 47 -158 34 -108 42 -126 49 -105 4 14 26 85 49 158
l41 132 70 0 c38 0 69 -4 69 -8 0 -5 -35 -105 -79 -223 l-79 -214 -79 -3 -79
-3 -82 218 c-45 120 -82 221 -82 226 0 4 33 7 74 7 72 0 74 -1 81 -27z"/>
</g>
</svg>
