<?xml version="1.0" encoding="UTF-8" standalone="no"?>
<svg
   xmlns:dc="http://purl.org/dc/elements/1.1/"
   xmlns:cc="http://creativecommons.org/ns#"
   xmlns:rdf="http://www.w3.org/1999/02/22-rdf-syntax-ns#"
   xmlns:svg="http://www.w3.org/2000/svg"
   xmlns="http://www.w3.org/2000/svg"
   width="34.72076mm"
   height="33.858566mm"
   viewBox="0 0 123.02632 119.9713"
   id="svg2"
   version="1.1">
  <defs
     id="defs4" />
  <metadata
     id="metadata7">
    <rdf:RDF>
      <cc:Work
         rdf:about="">
        <dc:format>image/svg+xml</dc:format>
        <dc:type
           rdf:resource="http://purl.org/dc/dcmitype/StillImage" />
        <dc:title></dc:title>
      </cc:Work>
    </rdf:RDF>
  </metadata>
  <g
     transform="translate(-0.83518771,-0.62941103)"
     id="layer1">
    <path
       style="fill:#000000"
       d="M 44.346264,118.70471 C 36.411594,115.74252 21.318134,106.86516 17.179024,102.72605 13.464653,99.011675 2.9034148,75.387965 1.4290278,67.495955 -1.2225032,53.303003 5.0683548,36.855173 19.038864,21.453966 28.194444,11.360781 31.127524,8.9186325 39.173094,4.6897485 c 5.63123,-2.959866 23.66138,-5.02833804 31.33469,-3.594808 6.77253,1.265245 26.94137,12.6661165 32.904276,18.5998575 4.92729,4.903175 11.7174,17.276431 11.7174,21.351978 0,1.745832 1.19146,3.016015 3.62477,3.864272 7.36694,2.568129 6.56973,18.238377 -1.13771,22.363277 -1.48346,0.79392 -2.48706,2.61587 -2.48706,4.51503 0,4.55669 -7.03299,19.95262 -12.48713,27.33562 -2.55693,3.461195 -7.144066,8.337625 -10.193626,10.836515 -10.96148,8.98211 -35.51028,13.44416 -48.10244,8.74322 z m 36.71935,-8.42927 c 15.25805,-7.74459 21.860416,-15.970235 26.365726,-32.848045 2.11568,-7.92578 3.26345,-9.95281 8.20397,-14.4887 6.05809,-5.56193 7.20997,-9.438838 4.0773,-13.723023 -1.47591,-2.018435 -2.19813,-2.104207 -6.30506,-0.748801 -2.55101,0.841911 -7.14955,3.447699 -10.21897,5.790637 -3.06941,2.342937 -5.857136,4.259887 -6.194936,4.259887 -0.3378,0 -0.61732,-4.359373 -0.62115,-9.687498 -0.009,-12.181196 -1.51732,-17.659978 -6.06123,-22.013327 -9.28169,-8.892419 -31.07236,-8.340582 -43.45006,1.100349 -4.72824,3.606404 -5.48174,3.774663 -5.48174,1.224089 0,-1.032013 -2.36829,-4.17474 -5.26288,-6.983836 l -5.26287,-5.107446 3.07537,-2.332483 c 2.76496,-2.097046 7.03977,-4.167643 14.32538,-6.9387975 2.35055,-0.894057 2.32209,-0.981595 -0.47624,-1.46437 -7.42794,-1.28149 -11.60483,0.908825 -21.9315,11.5006275 C 9.0701088,35.022073 3.3385398,46.764452 4.1489368,62.267395 c 0.395595,7.56775 1.518169,11.78467 5.823277,21.875 3.0941362,7.25205 6.7394592,13.70166 8.6827302,15.36222 4.3365,3.705615 22.60979,14.795895 25.84952,15.688395 1.375,0.37879 8.00595,0.52254 14.73546,0.31945 11.38806,-0.34369 12.89965,-0.7064 21.82569,-5.23702 z M 41.777664,91.954895 c -1.39568,-1.54687 -3.58935,-4.65009 -4.87483,-6.89604 -1.35392,-2.3655 -4.05929,-4.70624 -6.43031,-5.56361 -2.25118,-0.81404 -4.09306,-1.92957 -4.09306,-2.47896 0,-1.69328 2.33008,-1.12711 8.75,2.12611 8.43682,4.27526 15.13393,4.10009 23.34764,-0.61069 3.55995,-2.04173 6.82752,-4.28645 7.26127,-4.98827 1.04315,-1.68785 3.14109,-1.63533 3.14109,0.0786 0,1.88481 -14.74332,19.52936 -17.06152,20.41894 -3.78117,1.45097 -7.55672,0.66651 -10.04028,-2.08611 z m -7.6482,-19.9375 c -0.825,-0.825 -1.5,-3.66307 -1.5,-6.30682 0,-7.31547 8.50175,-14.608204 9.71943,-8.33725 0.18943,0.97557 -0.93557,2.3352 -2.5,3.02142 -1.96207,0.86062 -2.96594,2.50786 -3.23613,5.31015 -0.36489,3.78447 -0.12963,4.0625 3.4375,4.0625 2.5704,0 3.8292,0.61638 3.8292,1.875 0,2.31497 -7.52078,2.60423 -9.75,0.375 z m 39.38393,-0.29464 c -1.07545,-1.07545 -3.68304,-1.95536 -5.79464,-1.95536 -4.34547,0 -5.02685,-1.77648 -1.42147,-3.70602 3.99827,-2.13981 7.17397,-1.47817 9.42979,1.96465 2.55881,3.90524 0.84942,6.75983 -2.21368,3.69673 z m 40.366066,-13.20536 c 0,-2.71365 -2.43378,-3.31621 -4.60892,-1.14108 -1.6147,1.6147 -3.51581,-0.58682 -2.26059,-2.61781 1.31615,-2.129562 8.24365,-5.210944 10.10733,-4.495782 2.15041,0.825189 2.33061,7.186242 0.26218,9.254672 -2.20374,2.20375 -3.5,1.83339 -3.5,-1 z M 35.248804,53.036194 c -1.9409,-2.338638 0.0709,-12.525831 2.56862,-13.00685 2.68336,-0.516767 3.72409,2.659427 2.78851,8.510223 -0.8193,5.12358 -3.18725,7.111178 -5.35713,4.496627 z m 9.28095,0.522123 c -0.41099,-0.664995 -0.36819,-4.066604 0.0951,-7.559132 0.65164,-4.912279 1.29942,-6.263156 2.86098,-5.966272 1.52402,0.289745 2.11047,2.141898 2.3935,7.559132 0.33733,6.456602 0.1256,7.17535 -2.11373,7.17535 -1.36873,0 -2.82487,-0.544084 -3.23586,-1.209078 z"
       id="path4205" />
  </g>
</svg>
