<?xml version="1.0" encoding="UTF-8" standalone="no"?>
<svg
   xmlns:dc="http://purl.org/dc/elements/1.1/"
   xmlns:cc="http://creativecommons.org/ns#"
   xmlns:rdf="http://www.w3.org/1999/02/22-rdf-syntax-ns#"
   xmlns:svg="http://www.w3.org/2000/svg"
   xmlns="http://www.w3.org/2000/svg"
   width="34.497215mm"
   height="36.199505mm"
   viewBox="0 0 122.23423 128.26596"
   id="svg2"
   version="1.1">
  <defs
     id="defs4" />
  <metadata
     id="metadata7">
    <rdf:RDF>
      <cc:Work
         rdf:about="">
        <dc:format>image/svg+xml</dc:format>
        <dc:type
           rdf:resource="http://purl.org/dc/dcmitype/StillImage" />
        <dc:title></dc:title>
      </cc:Work>
    </rdf:RDF>
  </metadata>
  <g
     transform="translate(0.81200709,-0.68302)"
     id="layer1">
    <g
       id="g4188"
       transform="translate(-411.13209,-252.53814)">
      <path
         style="fill:#000000;fill-opacity:1"
         d="m 462.12638,380.82593 c -5.82277,-2.51863 -9.24619,-8.82078 -11.25963,-20.72775 l -0.84515,-4.99799 -1.75506,3.34965 c -2.24337,4.28164 -5.38369,5.23967 -11.64687,3.55317 -9.78659,-2.63525 -16.15685,-10.97893 -14.62331,-19.15341 0.87484,-4.66327 7.04274,-11.28243 12.39274,-13.29943 3.33686,-1.25803 3.65375,-3.81516 0.47601,-3.84122 -0.8188,-0.007 -4.45585,-1.39357 -8.08233,-3.0819 -7.11504,-3.31245 -14.0314,-9.89821 -14.0314,-13.36069 0,-1.18121 -0.5625,-2.4953 -1.25,-2.9202 -1.9433,-1.20103 -1.48711,-5.62056 1.35479,-13.125 4.10384,-10.83682 8.62708,-14.49778 15.11714,-12.23533 3.26464,1.13806 9.99867,7.7224 18.19519,17.79072 2.20757,2.71171 4.27179,4.67237 4.58714,4.35701 0.31535,-0.31535 -0.51285,-4.4906 -1.84045,-9.27833 -2.82221,-10.17779 -3.13183,-22.77925 -0.69991,-28.48672 3.12678,-7.33822 11.10569,-12.14735 20.15389,-12.14735 6.73856,0 8.75721,3.55942 8.75721,15.44126 0,5.60106 -0.46235,13.41811 -1.02745,17.37124 -0.56509,3.95312 -0.56509,7.18083 0,7.17267 0.5651,-0.008 2.82282,-3.28423 5.01717,-7.28016 10.94213,-19.92575 25.90295,-25.36248 36.51935,-13.27107 7.10279,8.08963 4.41208,16.28129 -9.73004,29.62224 l -8.79582,8.29754 12.80006,-0.72486 c 12.21938,-0.69198 12.95604,-0.58942 16.2381,2.26064 4.15345,3.60675 5.61003,10.66308 3.33489,16.15574 -2.16345,5.22302 -9.44715,8.70064 -20.09226,9.59309 -4.75145,0.39834 -8.639,1.14962 -8.639,1.6695 0,0.51988 1.9774,2.11192 4.39422,3.53788 5.31376,3.1352 7.27381,7.73064 6.14557,14.40862 -0.99228,5.87329 -6.506,12.00833 -10.75614,11.96822 -3.97358,-0.0375 -12.05004,-3.86122 -17.02394,-8.05981 -4.87148,-4.11213 -5.76243,-3.72791 -3.87964,1.67306 1.05514,3.02678 1.01224,4.90642 -0.17754,7.7788 -2.99262,7.22482 -13.34717,12.57697 -19.32753,9.99017 z m 14.55752,-44.25884 c 3.4494,-2.1542 4.82878,-6.44804 3.5282,-10.9829 -2.65298,-9.25039 -13.51578,-15.18939 -18.88869,-10.32697 -11.52613,10.431 -5.2607,25.75931 9.51194,23.27083 2.03993,-0.34363 4.67178,-1.22606 5.84855,-1.96096 z"
         id="path4190" />
    </g>
  </g>
</svg>
